<svg xmlns="http://www.w3.org/2000/svg" width="18.045" height="18" viewBox="0 0 18.045 18">
  <g id="download" transform="translate(-15.371 -16.501)">
    <path id="Path_3460" data-name="Path 3460" d="M162.988,209.432v-8.48h-1.2v8.48l-1.95-1.95-.851.851,3.4,3.4,3.4-3.4-.851-.851Z" transform="translate(-137.993 -177.234)" fill="#1e49e2"/>
    <path id="Path_3461" data-name="Path 3461" d="M29.807,21.914a5.413,5.413,0,0,0-10.827,0,3.609,3.609,0,0,0,0,7.218h3.007v-1.2H18.98a2.406,2.406,0,1,1,0-4.812h1.2v-1.2a4.21,4.21,0,0,1,8.421,0v1.2h1.2a2.406,2.406,0,0,1,0,4.812H26.8v1.2h3.007a3.609,3.609,0,1,0,0-7.218Z" fill="#1e49e2"/>
  </g>
</svg>
