<svg xmlns="http://www.w3.org/2000/svg" width="22" height="17.508" viewBox="0 0 22 17.508">
  <path id="home" d="M108.749,263.084v6.55a.886.886,0,0,1-.873.873h-5.24v-5.24H99.142v5.24H93.9a.886.886,0,0,1-.873-.873v-6.55a.186.186,0,0,1,.007-.041.187.187,0,0,0,.007-.041l7.846-6.468L108.735,263A.19.19,0,0,1,108.749,263.084Zm3.043-.942-.846,1.01a.464.464,0,0,1-.287.15h-.041a.419.419,0,0,1-.287-.1l-9.443-7.874-9.443,7.874a.507.507,0,0,1-.327.1.464.464,0,0,1-.287-.15l-.846-1.01a.443.443,0,0,1-.1-.321.4.4,0,0,1,.15-.293l9.811-8.174a1.693,1.693,0,0,1,2.074,0l3.33,2.784v-2.661a.42.42,0,0,1,.437-.437h2.62a.42.42,0,0,1,.437.437v5.568l2.988,2.483a.4.4,0,0,1,.15.293A.443.443,0,0,1,111.792,262.143Z" transform="translate(-89.889 -253)" fill="#00338d"/>
</svg>
