<svg id="threatIntelligent" xmlns="http://www.w3.org/2000/svg" width="52.768" height="52.768" viewBox="0 0 52.768 52.768">
  <path id="Path_24" data-name="Path 24" d="M30.423,43.049l-1.055.633-1.055-.633A23.3,23.3,0,0,1,17,23.069,17.87,17.87,0,0,0,29.367,14a17.87,17.87,0,0,0,12.368,9.07A23.3,23.3,0,0,1,30.423,43.049Z" transform="translate(-2.983 -2.457)" fill="#00bce5"/>
  <path id="Path_25" data-name="Path 25" d="M29.033,25.735a2.473,2.473,0,1,0-2.473,2.474A2.474,2.474,0,0,0,29.033,25.735ZM47.172,3.474A2.473,2.473,0,1,0,49.646,1,2.474,2.474,0,0,0,47.172,3.474ZM41.4,10.07A2.473,2.473,0,1,0,43.874,7.6,2.474,2.474,0,0,0,41.4,10.07Zm5.771,17.315a2.473,2.473,0,1,0,2.473-2.474A2.474,2.474,0,0,0,47.172,27.384ZM5.947,3.474A2.474,2.474,0,1,0,3.474,5.947,2.474,2.474,0,0,0,5.947,3.474Zm5.772,6.6a2.474,2.474,0,1,0-2.474,2.474A2.474,2.474,0,0,0,11.719,10.07ZM5.947,27.384a2.474,2.474,0,1,0-2.474,2.473A2.474,2.474,0,0,0,5.947,27.384Zm0,22.262a2.474,2.474,0,1,0-2.474,2.473A2.474,2.474,0,0,0,5.947,49.646Zm5.772-6.6a2.474,2.474,0,1,0-2.474,2.473A2.474,2.474,0,0,0,11.719,43.05Zm35.454,6.6a2.473,2.473,0,1,0,2.473-2.473A2.474,2.474,0,0,0,47.172,49.646ZM41.4,43.05a2.473,2.473,0,1,0,2.473-2.473A2.474,2.474,0,0,0,41.4,43.05Z" transform="translate(-0.175 -0.175)" fill="#f0f0ff" fill-rule="evenodd"/>
  <g id="Group_17" data-name="Group 17" transform="translate(0)">
    <path id="Path_26" data-name="Path 26" d="M6.492,48.646H17.315a2.473,2.473,0,0,0,2.473-2.473V42.05a.825.825,0,0,1,1.649,0v4.123a4.123,4.123,0,0,1-4.122,4.123H6.492a3.3,3.3,0,1,1,0-1.649Zm39.784,1.649H35.454a4.123,4.123,0,0,1-4.122-4.123V42.05a.825.825,0,0,1,1.649,0v4.123a2.473,2.473,0,0,0,2.473,2.473H46.276a3.3,3.3,0,1,1,0,1.649ZM4.947,49.47A1.649,1.649,0,1,1,3.3,47.821,1.65,1.65,0,0,1,4.947,49.47Zm42.874,0a1.649,1.649,0,1,1,1.649,1.649A1.65,1.65,0,0,1,47.821,49.47ZM12.264,42.05h.928a.825.825,0,0,0,.825-.824V36.278a.825.825,0,1,1,1.649,0v4.947A2.473,2.473,0,0,1,13.192,43.7h-.928a3.3,3.3,0,1,1,0-1.649ZM40.5,43.7h-.928A2.473,2.473,0,0,1,37.1,41.225V36.278a.824.824,0,1,1,1.649,0v4.947a.824.824,0,0,0,.825.824H40.5a3.3,3.3,0,1,1,0,1.649Zm-29.786-.825A1.649,1.649,0,1,1,9.07,41.225,1.65,1.65,0,0,1,10.719,42.874Zm31.331,0A1.649,1.649,0,1,1,43.7,44.523,1.65,1.65,0,0,1,42.05,42.874ZM27.864,41.3A24.123,24.123,0,0,0,39.576,20.613a.824.824,0,0,0-.646-.8,17.081,17.081,0,0,1-11.825-8.665.825.825,0,0,0-1.443,0,17.08,17.08,0,0,1-11.825,8.665.824.824,0,0,0-.646.8A24.122,24.122,0,0,0,24.9,41.3l1.055.633a.825.825,0,0,0,.848,0l1.055-.633Zm-1.48-28.148a18.507,18.507,0,0,1-11.533,8.111,22.473,22.473,0,0,0,10.9,18.623l.631.379.632-.379a22.476,22.476,0,0,0,10.159-13.5,22.867,22.867,0,0,0,.74-5.033l0-.089A18.509,18.509,0,0,1,26.384,13.151Zm-.824,15.6a3.3,3.3,0,1,1,1.649,0V32.98a.825.825,0,1,1-1.649,0Zm20.716-2.37a3.3,3.3,0,1,1,0,1.649H41.225a.825.825,0,1,1,0-1.649ZM6.492,28.033a3.3,3.3,0,1,1,0-1.649h5.051a.825.825,0,1,1,0,1.649H6.492Zm41.329-.824a1.649,1.649,0,1,1,1.649,1.649A1.65,1.65,0,0,1,47.821,27.209Zm-42.874,0A1.649,1.649,0,1,1,3.3,25.56,1.65,1.65,0,0,1,4.947,27.209ZM28.033,25.56a1.649,1.649,0,1,1-1.649-1.649A1.65,1.65,0,0,1,28.033,25.56ZM40.5,9.07a3.3,3.3,0,1,1,0,1.649h-.928a.824.824,0,0,0-.825.825V16.49a.824.824,0,1,1-1.649,0V11.543A2.473,2.473,0,0,1,39.576,9.07ZM12.264,10.719a3.3,3.3,0,1,1,0-1.649h.928a2.472,2.472,0,0,1,2.474,2.474V16.49a.825.825,0,1,1-1.649,0V11.543a.824.824,0,0,0-.825-.825h-.928ZM46.276,2.474a3.3,3.3,0,1,1,0,1.649H35.454A2.473,2.473,0,0,0,32.98,6.6v6.6a.825.825,0,1,1-1.649,0V6.6a4.123,4.123,0,0,1,4.122-4.123ZM6.492,4.123a3.3,3.3,0,1,1,0-1.649H17.315A4.123,4.123,0,0,1,21.437,6.6v6.6a.825.825,0,1,1-1.649,0V6.6a2.473,2.473,0,0,0-2.473-2.474H6.492ZM42.05,9.894A1.649,1.649,0,1,1,43.7,11.543,1.65,1.65,0,0,1,42.05,9.894Zm-31.331,0A1.649,1.649,0,1,1,9.07,8.245,1.65,1.65,0,0,1,10.719,9.894Zm37.1-6.6A1.649,1.649,0,1,1,49.47,4.947,1.65,1.65,0,0,1,47.821,3.3ZM4.947,3.3A1.649,1.649,0,1,1,3.3,1.649,1.65,1.65,0,0,1,4.947,3.3Z" transform="translate(0)" fill="#1b4a99" fill-rule="evenodd"/>
  </g>
</svg>
