<svg xmlns="http://www.w3.org/2000/svg" xmlns:xlink="http://www.w3.org/1999/xlink" width="52" height="52" viewBox="0 0 52 52">
  <defs>
    <clipPath id="clip-path">
      <circle id="Ellipse_17" data-name="Ellipse 17" cx="26" cy="26" r="26" transform="translate(-0.12 -0.12)"/>
    </clipPath>
  </defs>
  <g id="indicator" transform="translate(0.278 0.278)">
    <circle id="Ellipse_16" data-name="Ellipse 16" cx="26" cy="26" r="26" transform="translate(-0.278 -0.278)" fill="#fdca5c"/>
    <g id="Group_3462" data-name="Group 3462" transform="translate(-0.158 -0.158)" clip-path="url(#clip-path)">
      <path id="Path_457" data-name="Path 457" d="M58.611,29.307A15.306,15.306,0,1,1,43.306,14,15.305,15.305,0,0,1,58.611,29.307Z" transform="translate(-16.62 -8.259)" fill="#fff"/>
      <path id="Path_458" data-name="Path 458" d="M28,52h8.056V64.083H28Z" transform="translate(-16.62 -30.953)" fill="#fff"/>
      <path id="Path_459" data-name="Path 459" d="M23.639,66.472H18L22.028,56Z" transform="translate(-10.648 -33.342)" fill="#fff"/>
      <path id="Path_460" data-name="Path 460" d="M48.542,88.472H28.806L28,79.611,50.556,78Z" transform="translate(-16.62 -46.481)" fill="#fff"/>
      <path id="Path_461" data-name="Path 461" d="M68.333,100.917,49,105.75v-14.9L65.514,84Z" transform="translate(-29.162 -50.064)" fill="#fff"/>
      <path id="Path_462" data-name="Path 462" d="M76,77.307l6.042-2.432L86.472,64,76,65.611Z" transform="translate(-45.287 -38.12)" fill="#fff"/>
    </g>
    <path id="power" d="M35.153,6.5l-3.57,14.01h6.485L33.912,33.057,46.555,15.968H39.387L42.225,6.5Z" transform="translate(-13.347 5.944)" fill="#ff3c00"/>
  </g>
</svg>
