<svg xmlns="http://www.w3.org/2000/svg" xmlns:xlink="http://www.w3.org/1999/xlink" width="47.547" height="47.547" viewBox="0 0 47.547 47.547">
  <defs>
    <linearGradient id="linear-gradient" y1="0.5" x2="1" y2="0.5" gradientUnits="objectBoundingBox">
      <stop offset="0" stop-color="#ff884b"/>
      <stop offset="0.35" stop-color="#ff634c"/>
      <stop offset="0.655" stop-color="#fe4a4f"/>
      <stop offset="1" stop-color="#fe4840"/>
    </linearGradient>
  </defs>
  <g id="incidents" transform="translate(48 -143)">
    <path id="Path_22" data-name="Path 22" d="M91.167,187.522c2.293,0,4.009-1.193,4.009-2.265S93.47,183,91.167,183s-4.009,1.193-4.009,2.265S88.874,187.522,91.167,187.522Zm8.428,8.2a9.656,9.656,0,0,0-16.3,0,.989.989,0,0,1-.084.1,21.654,21.654,0,0,0,8.661,1.79,20.046,20.046,0,0,0,7.9-1.65C99.726,195.894,99.66,195.81,99.6,195.726Zm-18.254,3.356a20.206,20.206,0,0,0-1.641,8.092,19.809,19.809,0,0,0,2.032,8.922.457.457,0,0,1,.028.065,15.867,15.867,0,0,0,1.548,2.461,10.983,10.983,0,0,0,6.256,4.27,1.933,1.933,0,0,1-.056-.466l.1-21.154A26.068,26.068,0,0,1,81.341,199.082ZM93.33,201.31l-.1,21.107a1.762,1.762,0,0,1-.075.494,10.89,10.89,0,0,0,6.433-4.307,18.862,18.862,0,0,0,3.6-11.439,20.154,20.154,0,0,0-1.557-7.9,23.746,23.746,0,0,1-8.3,2.042Z" transform="translate(-115.795 -36.271)" fill="none"/>
    <path id="Path_23" data-name="Path 23" d="M-2.411,171.174a1.958,1.958,0,0,0,1.958-1.958,1.958,1.958,0,0,0-1.958-1.958H-9.142a23.1,23.1,0,0,0-1.715-5.995q.475-.308.951-.643A26.974,26.974,0,0,0-.733,149.573a1.871,1.871,0,0,0-.932-2.471,1.871,1.871,0,0,0-2.471.932,23.2,23.2,0,0,1-8.558,9.92c-.177-.261-.364-.513-.55-.755a15.768,15.768,0,0,0-5.267-4.512,5.248,5.248,0,0,0,1.613-3.692,5.487,5.487,0,0,0-2.517-4.447A9.073,9.073,0,0,0-24.627,143a9.124,9.124,0,0,0-5.221,1.548,5.5,5.5,0,0,0-2.517,4.447,5.3,5.3,0,0,0,1.818,3.888,16.039,16.039,0,0,0-4.9,4.317c-.149.186-.289.382-.429.578a21.735,21.735,0,0,1-8.018-9.668,1.859,1.859,0,0,0-2.443-.988,1.864,1.864,0,0,0-1,2.443,25.506,25.506,0,0,0,9.6,11.477,22.085,22.085,0,0,0-1.641,5.193h-6.666A1.958,1.958,0,0,0-48,168.191a1.958,1.958,0,0,0,1.958,1.958h6.237c-.009.186-.009.513-.009.774a24.166,24.166,0,0,0,1.6,8.745,17.436,17.436,0,0,0-8.624,8.223,1.86,1.86,0,0,0,.886,2.48,1.88,1.88,0,0,0,.792.177,1.855,1.855,0,0,0,1.687-1.072A13.942,13.942,0,0,1-36.551,183c.345.559.709,1.091,1.1,1.6,2.927,3.832,6.88,5.939,11.1,5.939s8.176-2.107,11.1-5.939a18.154,18.154,0,0,0,1.119-1.641,13.847,13.847,0,0,1,6.983,6.507,1.871,1.871,0,0,0,1.687,1.072,1.819,1.819,0,0,0,.792-.177,1.86,1.86,0,0,0,.886-2.48,17.453,17.453,0,0,0-8.7-8.232,24.019,24.019,0,0,0,1.594-8.475h6.47Zm-22.216-24.445c2.293,0,4.009,1.193,4.009,2.265s-1.715,2.265-4.009,2.265-4.009-1.193-4.009-2.265S-26.921,146.729-24.627,146.729Zm-1.6,39.874a10.968,10.968,0,0,1-6.256-4.27,16.131,16.131,0,0,1-1.548-2.461c-.009-.019-.019-.047-.028-.065a19.78,19.78,0,0,1-2.032-8.922,20.048,20.048,0,0,1,1.641-8.092,25.348,25.348,0,0,0,8.26,2.182l-.1,21.154a1.889,1.889,0,0,0,.065.475Zm-6.34-27.036a.992.992,0,0,1,.084-.1,10.334,10.334,0,0,1,8.148-4.475,10.374,10.374,0,0,1,8.148,4.475c.065.084.131.168.186.252a20.246,20.246,0,0,1-7.9,1.65,22,22,0,0,1-8.67-1.8ZM-16.2,182.333a10.89,10.89,0,0,1-6.433,4.307,1.762,1.762,0,0,0,.075-.494l.1-21.107A24.156,24.156,0,0,0-14.139,163a20.154,20.154,0,0,1,1.557,7.9A18.976,18.976,0,0,1-16.2,182.333Z" fill="url(#linear-gradient)"/>
  </g>
</svg>
