<svg xmlns="http://www.w3.org/2000/svg" width="44.195" height="44.196" viewBox="0 0 44.195 44.196">
  <g id="chat" transform="translate(-5 -5)">
    <path id="Path_2" data-name="Path 2" d="M44,10.2A8.2,8.2,0,0,0,36.4,5H13.141A8.141,8.141,0,0,0,5,13.141V28.261a8.141,8.141,0,0,0,5.815,7.792,8.642,8.642,0,0,0,1.163.267v7.06a1.163,1.163,0,0,0,.721,1.07.977.977,0,0,0,.442.093,1.163,1.163,0,0,0,.826-.337l3.175-3.152H32.436l7.792,7.8a1.163,1.163,0,0,0,.826.337A.977.977,0,0,0,41.5,49.1a1.163,1.163,0,0,0,.721-1.07v-7.06a8.141,8.141,0,0,0,6.978-8.06V17.793A8.2,8.2,0,0,0,44,10.2ZM42.217,28.261A5.815,5.815,0,0,1,36.4,34.076H21.282a1.163,1.163,0,0,0-.826.337L15.8,39.065l-1.5,1.512V35.239a1.163,1.163,0,0,0-1.163-1.163,5.49,5.49,0,0,1-1.686-.256,5.815,5.815,0,0,1-4.129-5.559V13.141a5.815,5.815,0,0,1,5.815-5.815H36.4a5.815,5.815,0,0,1,5.815,5.815Z" fill="#00c0ae"/>
    <path id="Path_3" data-name="Path 3" d="M35.424,13H12.163a1.163,1.163,0,1,0,0,2.326H35.424a1.163,1.163,0,0,0,0-2.326Zm0,5.815H12.163a1.163,1.163,0,1,0,0,2.326H35.424a1.163,1.163,0,0,0,0-2.326Zm0,5.815H12.163a1.163,1.163,0,1,0,0,2.326H35.424a1.163,1.163,0,0,0,0-2.326Z" transform="translate(0.978 1.304)" fill="#00c0ae"/>
  </g>
</svg>
