<svg id="analysis" xmlns="http://www.w3.org/2000/svg" width="51.767" height="46" viewBox="0 0 51.767 46">
  <rect id="Rectangle_9" data-name="Rectangle 9" width="7.313" height="24.176" transform="translate(43.072 21.824)" fill="#00acea"/>
  <rect id="Rectangle_10" data-name="Rectangle 10" width="7.313" height="17.276" transform="translate(29.375 28.724)" fill="#00acea"/>
  <rect id="Rectangle_11" data-name="Rectangle 11" width="7.313" height="24.176" transform="translate(15.678 21.824)" fill="#00acea"/>
  <rect id="Rectangle_12" data-name="Rectangle 12" width="7.313" height="13.137" transform="translate(1.981 32.863)" fill="#00acea"/>
  <path id="Path_27" data-name="Path 27" d="M227.8,132.581l-.019-.012-7.1-4.576-.039-.027.451-.611.36-.559,7.1,4.577Z" transform="translate(-198.95 -118.771)" fill="#fedb41"/>
  <rect id="Rectangle_13" data-name="Rectangle 13" width="8.443" height="1.424" transform="translate(36.44 12.424) rotate(-39.959)" fill="#fedb41"/>
  <rect id="Rectangle_14" data-name="Rectangle 14" width="9.822" height="1.424" transform="translate(6.964 16.772) rotate(-44.35)" fill="#fedb41"/>
  <path id="Path_28" data-name="Path 28" d="M55.775,62.015A4.987,4.987,0,1,0,60.757,67a4.987,4.987,0,0,0-4.983-4.985ZM70.96,69.134a4.984,4.984,0,1,0,4.983,4.983A4.984,4.984,0,0,0,70.96,69.134ZM84.643,59.17a4.983,4.983,0,1,0,4.983,4.983,4.983,4.983,0,0,0-4.983-4.983Zm-38.91,16.7a4.984,4.984,0,1,0,2.093,4.059A4.984,4.984,0,0,0,45.733,75.871Z" transform="translate(-37.858 -59.17)" fill="#00efd1"/>
</svg>
