<?xml version="1.0" encoding="UTF-8"?>
<svg id="Artwork" xmlns="http://www.w3.org/2000/svg" viewBox="0 0 495.29 198.93">
  <defs>
    <style>
      .cls-1 {
        fill: #fff;
      }
    </style>
  </defs>
  <path class="cls-1" d="M491.41,151.43h-25.73l4.25-17.02h-51.56l-4.24,17.02h-24.91v-3.49c.39-1.92.72-3.93,1.2-6.08,4.53-18.35,16.58-36.48,37.42-36.48,8.25,0,16.44,3.14,15.32,14.55h30.68c1.21-5.32,3.24-14.39-2.55-22.72-6.54-9.06-19.71-12.69-36.79-12.69-12.15,0-29.92,1.95-45.27,11.96V3.92h102.2v147.51ZM431.11,176.37c-5.84,1.05-11.65,1.76-17.19,1.76-14.73,0-24.98-6.85-25.19-22.82h47.6l-5.22,21.06ZM372.21,92.1l-.05,21.14c-7.12,9.84-11.54,20.59-13.61,29.24-.78,3.03-1.33,5.97-1.63,8.94h-15.01l12.83-60.9-43.2-.04-38.66,60.94h-2.82V3.92h102.15v88.18ZM315.17,151.43h-15.37l23.26-36.6-7.89,36.6ZM253.15,90.39h-25.57l-17.54,61.05h-27.11c13.81-5.11,22.22-14.87,24.82-29.35,2.14-11.25,1.12-18.66-3.46-24.2-6.88-8.25-20.68-7.54-32.94-7.54-2.14,0-20.28.04-20.28.04V3.92h102.07v86.47ZM236.8,151.43l10.76-38.19.38,38.19h-11.14ZM162.46,136.92h-.03c-.99.05-1.99.14-3.13.14-1.49,0-2.66.05-3.75.05l-6.54-.05,3.02-11.18,1.43-5.55,3.43-13c1.52,0,3.01-.05,4.43-.05h5.06c8.64,0,14.1.49,16.09,3.27,1.53,2.09,1.33,5.69-.47,11.17-3.08,9.45-6.98,14.24-19.55,15.2M134.07,95.8l-1.6,5.3-14.61,48.62-.58,1.71h-48.09l-3.75-7.92,51.85-52.98h-33.31l-40.54,43.67,13.13-43.67h-24.56V3.92h102.07v91.88ZM385.33,0v99.26c-3.47,2.74-6.42,5.67-9.16,8.83V0h-109.96v90.39h-9.11V0h-109.97v90.53h-9.1V0H28.06v103.19L0,196.74h24.68l12.39-41.44h3.57l20.47,41.44h29.82l-19.86-41.44h45.06l-12.5,41.44h26.97l12.34-41.32h5.92v-.12h60.04l-11.91,41.31h27.19l11.54-41.31h12.23l.33,41.31h22.81l26.18-41.31h17.14l-8.84,41.31h26.77l8.68-41.31h15.48c-.61,12.81,2.66,24.44,11.15,32.27,10.37,9.53,26.3,11.36,38.09,11.36,16.13,0,32.87-2.31,49.72-6.11l9.28-37.51h30.56V0h-109.96Z"/>
</svg>