<svg xmlns="http://www.w3.org/2000/svg" width="25.731" height="17.959" viewBox="0 0 25.731 17.959">
  <path id="data-analysis" d="M24.035,7.6V17.657a.3.3,0,0,1-.3.3h-2.6a.3.3,0,0,1-.3-.3V10.18c.532-.519,1.183-1.148,1.849-1.789l1.047-1.009a2.689,2.689,0,0,0,.3.222ZM6.325,4.882a4.377,4.377,0,0,0-1.692.209H4.621a4.371,4.371,0,0,0-2.859,5.125,4.283,4.283,0,0,0,.375,1.032L.08,13.217a.209.209,0,0,0,0,.3l1.164,1.219a.209.209,0,0,0,.3,0l1.979-1.91a4.352,4.352,0,0,0,.97.517,4.5,4.5,0,0,0,1.257.272,4.377,4.377,0,0,0,4.429-5.755h0A4.369,4.369,0,0,0,6.325,4.888ZM3.733,6.622a3.487,3.487,0,0,1,4.926.335v.01a3.5,3.5,0,0,1,.668,1.171h0a3.483,3.483,0,0,1-3.539,4.6,3.443,3.443,0,0,1-1.315-.354h0A3.5,3.5,0,0,1,3.4,11.546l-.01-.013a3.483,3.483,0,0,1-.67-1.171v-.01A3.506,3.506,0,0,1,3.741,6.62ZM9.72,4.93l2.3-2.011c1.52,1.491,2.995,3.292,4.5,4.779l5.481-5.514L20.236.419,25.75,0l-.31,5.619-1.7-1.7c-1.217,1.234-4.094,3.95-5.313,5.169-1.539,1.539-2.274,1.569-3.814.027l-2.6-2.892-.808.716a5.977,5.977,0,0,0-.287-.565,5.508,5.508,0,0,0-.628-.875h0a5.535,5.535,0,0,0-.58-.57Zm3.858,6.564v6.164a.3.3,0,0,1-.3.3h-2.6a.3.3,0,0,1-.3-.3v-4.48a6.073,6.073,0,0,0,.444-.511,5.872,5.872,0,0,0,1.164-2.777l.693.771.09.094a10.6,10.6,0,0,0,.81.739ZM8.342,14.53v3.127a.3.3,0,0,1-.3.3H5.448a.3.3,0,0,1-.3-.3v-2.8a6.239,6.239,0,0,0,.645.08,5.965,5.965,0,0,0,2.258-.293c.1-.036.209-.071.3-.111Zm10.463-2.578v5.7a.3.3,0,0,1-.3.3H15.9a.3.3,0,0,1-.3-.3v-5.11a4.025,4.025,0,0,0,.951.1A4.145,4.145,0,0,0,18.805,11.952Z" transform="translate(-0.019)" fill="#00338d" fill-rule="evenodd"/>
</svg>
